<?xml version="1.0" standalone="no"?>
<!DOCTYPE svg PUBLIC "-//W3C//DTD SVG 20010904//EN"
 "http://www.w3.org/TR/2001/REC-SVG-20010904/DTD/svg10.dtd">
<svg version="1.0" xmlns="http://www.w3.org/2000/svg"
 width="500.000000pt" height="500.000000pt" viewBox="0 0 500.000000 500.000000"
 preserveAspectRatio="xMidYMid meet">

<g transform="translate(0.000000,500.000000) scale(0.100000,-0.100000)"
fill="#000000" stroke="none">
<path d="M2124 4360 c-99 -32 -186 -122 -215 -222 -4 -16 -9 -187 -10 -381 -2
-193 -5 -378 -7 -409 l-4 -58 -581 -2 -582 -3 -56 -26 c-110 -52 -185 -150
-209 -274 -8 -42 -10 -228 -8 -625 3 -559 3 -566 25 -620 38 -91 90 -150 167
-190 l69 -35 588 -3 589 -2 5 -23 c3 -12 6 -157 7 -322 l3 -300 34 -63 c40
-74 84 -115 161 -151 l55 -26 1050 -3 c1030 -2 1051 -2 1117 18 84 25 164 95
205 178 l28 57 0 1625 0 1625 -26 56 c-34 72 -96 134 -168 168 l-56 26 -1060
2 c-1028 2 -1062 2 -1121 -17z m756 -170 c18 -18 20 -33 20 -132 0 -120 -10
-148 -55 -148 -49 0 -60 21 -63 125 -4 106 0 136 24 159 21 22 50 20 74 -4z
m772 3 c15 -14 18 -32 18 -131 0 -124 -10 -152 -54 -152 -52 1 -65 39 -60 170
3 69 8 98 20 111 21 23 52 24 76 2z m-932 -188 c0 -109 48 -162 138 -152 70 8
96 40 102 130 l5 72 263 3 262 2 0 -50 c0 -63 19 -110 56 -139 24 -19 38 -22
77 -18 77 7 117 60 117 157 l0 50 49 0 c62 0 111 -31 124 -79 4 -19 7 -64 5
-100 l-3 -66 -682 -3 c-543 -2 -683 0 -684 10 -3 36 2 182 7 190 15 25 72 48
117 48 l47 0 0 -55z m-230 -546 c0 -437 1 -453 20 -485 12 -18 40 -42 64 -53
41 -21 56 -21 660 -21 595 0 618 1 656 20 21 11 49 34 62 52 l23 33 3 453 3
453 169 -3 c184 -3 196 -7 244 -72 21 -27 21 -30 21 -1384 0 -1339 0 -1357
-20 -1391 -11 -19 -33 -43 -48 -55 l-28 -21 -1080 -3 c-1197 -3 -1123 -6
-1172 62 -21 30 -22 39 -22 254 l0 223 60 24 c73 29 125 84 169 175 l31 65 0
615 0 615 -27 57 c-35 75 -95 138 -162 171 -30 15 -60 27 -66 27 -8 0 -10 78
-8 274 3 258 4 276 23 302 43 56 73 64 257 64 l168 0 0 -451z m1430 -60 c-1
-385 -2 -394 -60 -424 -25 -13 -112 -15 -623 -15 -398 0 -604 4 -625 11 -62
21 -62 21 -62 419 l0 360 685 0 685 0 0 -351z m-1917 -313 c58 -25 105 -81
117 -140 7 -36 10 -225 8 -582 -3 -508 -4 -530 -23 -563 -31 -53 -84 -89 -144
-101 -68 -13 -1075 -13 -1153 0 -70 11 -124 49 -149 105 -17 37 -19 79 -19
592 0 365 4 561 11 580 14 37 66 92 104 109 45 20 1201 20 1248 0z"/>
<path d="M2516 2719 l-26 -20 0 -184 0 -184 26 -20 c25 -19 40 -21 196 -21
230 0 218 -12 218 225 0 237 12 225 -218 225 -156 0 -171 -2 -196 -21z m349
-204 l0 -160 -155 0 -155 0 -3 150 c-1 82 0 155 3 162 3 11 38 13 157 11 l153
-3 0 -160z"/>
<path d="M2757 2588 c-13 -18 -32 -45 -42 -60 -22 -35 -27 -35 -49 3 -13 21
-24 29 -39 27 -34 -5 -32 -35 9 -94 52 -75 67 -72 129 23 56 85 64 103 58 121
-9 22 -42 12 -66 -20z"/>
<path d="M3042 2648 c-7 -7 -12 -24 -12 -38 0 -14 5 -31 12 -38 9 -9 151 -12
578 -12 537 0 568 1 583 18 22 24 21 45 -1 65 -17 15 -72 17 -583 17 -426 0
-568 -3 -577 -12z"/>
<path d="M3042 2438 c-19 -19 -15 -66 7 -78 13 -6 152 -10 385 -10 318 0 367
2 380 16 19 18 21 55 4 72 -17 17 -759 17 -776 0z"/>
<path d="M2543 2173 c-47 -9 -53 -34 -53 -224 l0 -178 26 -20 c25 -19 40 -21
196 -21 166 0 169 0 193 25 25 24 25 27 25 197 -1 186 -4 198 -54 218 -26 9
-286 12 -333 3z m310 -61 c15 -4 17 -20 17 -162 0 -139 -2 -159 -16 -162 -9
-2 -81 -2 -160 0 l-144 3 0 159 0 159 88 4 c116 5 193 4 215 -1z"/>
<path d="M3042 2078 c-7 -7 -12 -24 -12 -38 0 -14 5 -31 12 -38 9 -9 151 -12
579 -12 503 0 569 2 583 16 19 18 20 38 6 65 -10 18 -27 19 -583 19 -432 0
-576 -3 -585 -12z"/>
<path d="M3052 1874 c-24 -17 -30 -62 -10 -82 9 -9 93 -12 318 -12 292 0 308
1 325 20 22 25 13 68 -18 79 -12 5 -150 9 -307 10 -243 1 -289 -2 -308 -15z"/>
<path d="M2510 1580 c-19 -19 -20 -33 -20 -200 0 -237 -17 -220 215 -220 238
0 225 -13 225 223 0 231 15 217 -223 217 -164 0 -179 -2 -197 -20z m355 -195
l0 -160 -157 -3 -158 -3 0 159 c0 87 3 162 7 166 4 3 75 5 157 4 l151 -3 0
-160z"/>
<path d="M3048 1519 c-25 -14 -24 -75 1 -89 13 -6 213 -10 579 -10 529 0 560
1 575 18 22 24 21 55 -1 75 -17 15 -71 17 -578 17 -361 -1 -565 -4 -576 -11z"/>
<path d="M3048 1309 c-22 -13 -24 -62 -2 -83 13 -14 61 -16 370 -16 341 0 355
1 374 20 24 24 25 38 4 68 l-15 22 -357 0 c-224 0 -364 -4 -374 -11z"/>
<path d="M3144 3646 c-130 -33 -223 -169 -211 -311 8 -109 81 -215 176 -259
71 -32 179 -29 253 7 147 72 210 247 143 396 -30 66 -94 133 -149 156 -50 21
-153 26 -212 11z m173 -61 c131 -55 189 -202 129 -330 -47 -103 -157 -159
-263 -135 -194 43 -256 294 -104 421 21 18 54 39 72 45 48 17 123 17 166 -1z"/>
<path d="M3102 3438 c-27 -27 -6 -68 35 -68 31 0 52 42 33 65 -15 18 -51 20
-68 3z"/>
<path d="M3294 3436 c-9 -23 -1 -48 19 -60 25 -16 52 4 52 40 0 25 -4 29 -33
32 -22 2 -34 -2 -38 -12z"/>
<path d="M3104 3296 c-11 -29 2 -51 41 -73 23 -13 57 -23 81 -23 74 0 150 46
142 87 -5 28 -35 27 -69 -1 -42 -35 -100 -36 -135 -1 -28 28 -52 32 -60 11z"/>
<path d="M1889 2889 c-15 -5 -50 -38 -79 -72 -62 -74 -243 -284 -355 -412 -44
-51 -106 -124 -139 -163 -32 -40 -62 -72 -65 -72 -8 0 -83 78 -131 135 -18 22
-73 82 -122 133 -83 86 -92 92 -129 92 -53 0 -89 -34 -89 -86 0 -41 13 -58
287 -370 185 -211 185 -211 360 -1 65 77 150 178 188 223 39 45 104 122 145
171 41 48 104 122 140 163 37 41 76 89 88 107 57 82 -10 185 -99 152z"/>
</g>
</svg>
